<?xml version="1.0" encoding="utf-8" standalone="no"?>
<!DOCTYPE svg PUBLIC "-//W3C//DTD SVG 1.1//EN"
  "http://www.w3.org/Graphics/SVG/1.1/DTD/svg11.dtd">
<!-- Created with matplotlib (http://matplotlib.org/) -->
<svg height="540pt" version="1.1" viewBox="0 0 1229 540" width="1229pt" xmlns="http://www.w3.org/2000/svg" xmlns:xlink="http://www.w3.org/1999/xlink">
 <defs>
  <style type="text/css">
*{stroke-linecap:butt;stroke-linejoin:round;stroke-miterlimit:100000;}
  </style>
 </defs>
 <g id="figure_1">
  <g id="patch_1">
   <path d="M 0 540.9 
L 1229.4 540.9 
L 1229.4 0 
L 0 0 
z
" style="fill:#ffffff;"/>
  </g>
  <g id="axes_1">
   <g id="patch_2">
    <path d="M 36.085 511.34 
L 1216.44 511.34 
L 1216.44 28.76 
L 36.085 28.76 
z
" style="fill:#ffffff;"/>
   </g>
   <g id="line2d_1">
    <path clip-path="url(#p2d95a95f45)" d="M 33.515267 174.724365 
L 36.761774 159.069536 
L 40.008281 143.902168 
L 43.254789 191.152322 
L 46.501296 210.477099 
L 49.747803 198.106694 
L 52.994311 179.751256 
L 56.240818 192.277842 
L 59.487325 212.43381 
L 62.733833 211.077209 
L 65.98034 205.825961 
L 69.226847 207.032506 
L 72.473355 200.349899 
L 75.719862 198.669767 
L 78.966369 203.617912 
L 82.212877 184.960026 
L 85.459384 206.456014 
L 88.705891 146.951665 
L 91.952399 147.212347 
L 95.198906 201.551373 
L 98.445413 200.757076 
L 101.691921 198.85894 
L 104.938428 194.056862 
L 108.184935 154.070878 
L 114.67795 150.197969 
L 117.924457 198.794838 
L 121.170965 203.642727 
L 124.417472 197.455644 
L 127.663979 192.094795 
L 130.910487 187.480351 
L 134.156994 177.251243 
L 137.403501 128.037768 
L 140.650009 121.500431 
L 143.896516 116.448127 
L 147.143023 87.200935 
L 150.389531 103.630374 
L 153.636038 103.857097 
L 156.882545 102.602945 
L 160.129053 116.70428 
L 163.37556 141.826826 
L 166.622067 119.173922 
L 169.868575 123.240249 
L 173.115082 143.830317 
L 176.361589 143.126219 
L 179.608097 143.043285 
L 182.854604 142.601721 
L 186.101111 187.204285 
L 189.347619 209.79169 
L 192.594126 209.886419 
L 195.840633 235.702209 
L 199.087141 213.147908 
L 202.333648 208.943833 
L 205.580155 209.586934 
L 208.826663 212.861614 
L 212.07317 208.350446 
L 215.319677 194.388997 
L 218.566185 187.839466 
L 221.812692 179.841768 
L 225.059199 177.20828 
L 228.305707 181.29324 
L 231.552214 176.488342 
L 234.798721 172.970302 
L 238.045229 174.12944 
L 241.291736 190.800957 
L 244.538243 198.133218 
L 247.784751 200.46289 
L 251.031258 192.486502 
L 254.277765 189.781391 
L 257.524273 201.860544 
L 260.77078 198.034472 
L 264.017287 201.791884 
L 267.263795 203.519679 
L 270.510302 194.133016 
L 273.756809 175.322965 
L 277.003317 162.21171 
L 280.249824 152.48898 
L 283.496331 158.361022 
L 286.742839 193.477008 
L 289.989346 200.576877 
L 293.235853 182.48272 
L 296.482361 178.398786 
L 299.728868 194.078628 
L 302.975375 219.463537 
L 306.221883 203.02011 
L 309.46839 205.854109 
L 312.714897 203.950104 
L 315.961405 190.382755 
L 319.207912 190.984574 
L 322.454419 153.169915 
L 325.700927 151.79132 
L 328.947434 131.984495 
L 332.193941 117.48228 
L 335.440449 137.972377 
L 338.686956 151.632518 
L 341.933463 151.057222 
L 345.179971 146.391925 
L 348.426478 197.707523 
L 351.672985 165.367929 
L 354.919493 175.126214 
L 358.166 202.650853 
L 361.412507 217.131045 
L 364.659015 201.157728 
L 367.905522 185.966857 
L 371.152029 141.847737 
L 374.398537 165.099697 
L 377.645044 185.009712 
L 380.891551 186.235032 
L 384.138059 189.933327 
L 387.384566 181.272756 
L 390.631073 144.121141 
L 393.877581 159.890727 
L 397.124088 182.74343 
L 400.370595 185.010139 
L 403.617103 181.870017 
L 406.86361 169.833741 
L 410.110117 150.944858 
L 413.356625 156.459894 
L 416.603132 178.170155 
L 419.84964 178.891062 
L 423.096147 186.51409 
L 426.342654 181.903236 
L 429.589162 157.785271 
L 432.835669 177.16811 
L 436.082176 182.430469 
L 439.328684 183.763224 
L 442.575191 184.703332 
L 445.821698 182.160243 
L 449.068206 153.242849 
L 452.314713 164.073492 
L 455.56122 186.05962 
L 458.807728 182.938415 
L 462.054235 181.206745 
L 465.300742 175.642421 
L 468.54725 147.390465 
L 471.793757 168.39751 
L 475.040264 184.138464 
L 478.286772 188.477895 
L 481.533279 188.23274 
L 484.779786 184.876209 
L 488.026294 188.938034 
L 491.272801 186.832663 
L 494.519308 184.315016 
L 497.765816 182.852489 
L 501.012323 178.406193 
L 504.25883 177.1815 
L 507.505338 181.054467 
L 510.751845 179.947722 
L 513.998352 178.589012 
L 517.24486 177.988446 
L 520.491367 178.1295 
L 523.737874 171.943727 
L 526.984382 173.183121 
L 530.230889 176.050567 
L 533.477396 187.359754 
L 536.723904 175.002596 
L 539.970411 187.129869 
L 543.216918 194.777855 
L 546.463426 189.47088 
L 549.709933 189.098717 
L 552.95644 190.360048 
L 556.202948 187.221151 
L 559.449455 188.874445 
L 562.695962 192.784591 
L 565.94247 187.749638 
L 569.188977 187.089955 
L 572.435484 181.620759 
L 575.681992 180.786748 
L 578.928499 181.021618 
L 582.175006 179.353281 
L 585.421514 188.281287 
L 588.668021 189.736291 
L 591.914528 185.124811 
L 595.161036 185.622272 
L 598.407543 182.055543 
L 601.65405 179.099949 
L 604.900558 165.366333 
L 608.147065 167.031194 
L 611.393572 167.264327 
L 614.64008 193.906151 
L 617.886587 192.425676 
L 621.133094 198.136038 
L 624.379602 190.336288 
L 627.626109 187.963283 
L 630.872616 190.619448 
L 634.119124 186.210958 
L 637.365631 180.755978 
L 640.612138 181.284494 
L 643.858646 185.856943 
L 647.105153 185.988566 
L 650.35166 189.692075 
L 653.598168 166.544673 
L 656.844675 163.367571 
L 660.091182 154.869791 
L 663.33769 157.437552 
L 666.584197 160.823912 
L 669.830704 147.46924 
L 673.077212 142.7289 
L 676.323719 152.438581 
L 679.570226 144.673531 
L 682.816734 147.898553 
L 686.063241 176.945832 
L 689.309748 171.008235 
L 692.556256 160.754482 
L 695.802763 178.961887 
L 699.04927 181.866798 
L 702.295778 182.04919 
L 705.542285 176.484752 
L 708.788792 163.756429 
L 712.0353 159.447739 
L 715.281807 174.546531 
L 718.528314 188.913334 
L 721.774822 184.116641 
L 725.021329 197.890541 
L 728.267836 184.18741 
L 731.514344 175.774158 
L 734.760851 190.515859 
L 738.007358 193.343448 
L 741.253866 200.109615 
L 744.500373 201.749548 
L 747.74688 188.363052 
L 750.993388 177.134321 
L 754.239895 193.422023 
L 757.486402 198.771419 
L 760.73291 198.038404 
L 763.979417 205.543341 
L 767.225924 186.755684 
L 770.472432 170.55744 
L 773.718939 198.819538 
L 776.965446 149.389883 
L 780.211954 152.104424 
L 783.458461 159.414263 
L 786.704968 196.2338 
L 789.951476 223.29602 
L 793.197983 207.548457 
L 796.44449 200.310412 
L 799.690998 201.951684 
L 802.937505 457.417088 
L 806.184012 473.173398 
L 809.43052 195.653604 
L 812.677027 181.058854 
L 815.923534 202.543589 
L 819.170042 207.848028 
L 822.416549 208.098738 
L 825.663056 194.942498 
L 828.909564 186.846054 
L 832.156071 188.552681 
L 835.402578 222.905681 
L 838.649086 221.182558 
L 841.895593 222.161953 
L 845.1421 215.751396 
L 848.388608 205.479581 
L 851.635115 214.800405 
L 854.881622 225.326036 
L 858.12813 225.30558 
L 861.374637 211.516466 
L 864.621144 188.604247 
L 867.867652 172.945544 
L 871.114159 197.855442 
L 874.360666 197.61325 
L 877.607174 195.385429 
L 880.853681 195.645684 
L 884.100188 174.79049 
L 887.346696 166.632194 
L 890.593203 182.01466 
L 893.83971 195.069619 
L 900.332725 194.865974 
L 903.579232 180.52729 
L 906.82574 175.552792 
L 910.072247 194.043928 
L 913.318754 199.326145 
L 916.565262 198.85139 
L 919.811769 198.64273 
L 923.058276 194.71304 
L 926.304784 197.464504 
L 929.551291 201.698295 
L 932.797798 196.087134 
L 936.044306 195.924884 
L 939.290813 185.05823 
L 942.53732 186.619075 
L 945.783828 186.819387 
L 949.030335 181.991612 
L 952.276842 183.468041 
L 955.52335 184.067781 
L 958.769857 175.865184 
L 962.016364 174.876159 
L 965.262872 183.623795 
L 968.509379 180.798314 
L 971.755886 180.116125 
L 975.002394 192.103313 
L 978.248901 226.715998 
L 981.495408 192.982396 
L 984.741916 188.438066 
L 987.988423 195.167396 
L 991.23493 190.392327 
L 994.481438 162.197522 
L 997.727945 153.978714 
L 1000.974452 153.308576 
L 1004.22096 158.506633 
L 1007.467467 166.874985 
L 1010.713974 253.089362 
L 1013.960482 269.609314 
L 1017.206989 242.763218 
L 1020.453496 259.638295 
L 1023.700004 264.910341 
L 1026.946511 274.934152 
L 1030.193018 152.034823 
L 1033.439526 127.713782 
L 1036.686033 117.208635 
L 1039.93254 196.466619 
L 1043.179048 204.86326 
L 1046.425555 203.36515 
L 1049.672062 203.304381 
L 1052.91857 183.348583 
L 1056.165077 194.802726 
L 1059.411584 181.765431 
L 1062.658092 177.421698 
L 1065.904599 178.536392 
L 1069.151106 186.853917 
L 1072.397614 175.543932 
L 1075.644121 152.908778 
L 1078.890628 180.331309 
L 1082.137136 176.619737 
L 1085.383643 177.049222 
L 1088.63015 175.527664 
L 1091.876658 160.242377 
L 1095.123165 146.441611 
L 1098.369672 164.052097 
L 1101.61618 179.80815 
L 1104.862687 179.437981 
L 1108.109194 178.416649 
L 1111.355702 160.07329 
L 1114.602209 151.190412 
L 1117.848716 173.366054 
L 1121.095224 175.488462 
L 1124.341731 172.873978 
L 1127.588238 169.971204 
L 1130.834746 168.516171 
L 1134.081253 168.009194 
L 1137.32776 161.569548 
L 1140.574268 164.927162 
L 1143.820775 161.441344 
L 1147.067282 160.964994 
L 1150.31379 155.123065 
L 1153.560297 153.854612 
L 1156.806804 160.391294 
L 1160.053312 161.134167 
L 1163.299819 162.0106 
L 1166.546326 166.645755 
L 1169.792834 170.701427 
L 1173.039341 168.842465 
L 1176.285848 159.833292 
L 1179.532356 160.397704 
L 1182.778863 159.430246 
L 1186.02537 160.2446 
L 1189.271878 151.671321 
L 1192.518385 153.952759 
L 1195.764892 147.465735 
L 1199.0114 160.285682 
L 1202.257907 119.289135 
L 1205.504414 126.584872 
L 1208.750922 136.607742 
L 1211.997429 174.030779 
L 1215.243936 125.630405 
L 1218.490444 91.23373 
L 1218.490444 91.23373 
" style="fill:none;stroke:#0000ff;stroke-dasharray:6.000000,6.000000;stroke-dashoffset:0.0;"/>
   </g>
   <g id="line2d_2">
    <path clip-path="url(#p2d95a95f45)" d="M 33.515267 164.557798 
L 36.761774 147.555083 
L 40.008281 196.602554 
L 43.254789 214.323196 
L 46.501296 202.85836 
L 49.747803 184.614808 
L 52.994311 196.581523 
L 56.240818 218.085857 
L 59.487325 217.328736 
L 62.733833 210.198321 
L 65.98034 212.437085 
L 69.226847 205.025523 
L 72.473355 202.699001 
L 75.719862 208.637142 
L 78.966369 188.246502 
L 82.212877 212.206699 
L 85.459384 145.912742 
L 88.705891 152.954348 
L 91.952399 208.302556 
L 95.198906 205.124943 
L 98.445413 204.049487 
L 101.691921 199.044077 
L 104.938428 155.612875 
L 108.184935 157.995128 
L 111.431443 153.171351 
L 114.67795 206.93362 
L 117.924457 207.732803 
L 121.170965 202.437068 
L 124.417472 196.605804 
L 127.663979 191.962417 
L 130.910487 182.553757 
L 134.156994 128.346966 
L 137.403501 125.517322 
L 140.650009 120.082686 
L 143.896516 90.644835 
L 147.143023 110.299385 
L 150.389531 107.628431 
L 153.636038 107.462094 
L 156.882545 121.5042 
L 160.129053 147.058939 
L 163.37556 122.952958 
L 166.622067 127.570726 
L 169.868575 149.16492 
L 173.115082 147.268294 
L 176.361589 147.077102 
L 179.608097 147.03982 
L 182.854604 195.990739 
L 186.101111 214.60616 
L 189.347619 215.795375 
L 192.594126 242.834721 
L 195.840633 216.344096 
L 199.087141 214.230468 
L 202.333648 213.999125 
L 205.580155 217.653285 
L 208.826663 213.67993 
L 212.07317 198.926112 
L 215.319677 192.988449 
L 218.566185 183.907397 
L 221.812692 182.102256 
L 225.059199 186.848314 
L 228.305707 178.62495 
L 231.552214 177.93618 
L 234.798721 177.92662 
L 238.045229 195.243943 
L 241.291736 203.361195 
L 244.538243 204.865017 
L 247.784751 196.636968 
L 251.031258 194.040675 
L 254.277765 209.617958 
L 257.524273 200.305945 
L 260.77078 207.381297 
L 264.017287 207.71617 
L 267.263795 199.034135 
L 270.510302 179.716274 
L 273.756809 167.131244 
L 277.003317 157.75327 
L 280.249824 162.137688 
L 283.496331 199.668511 
L 286.742839 205.81247 
L 289.989346 186.848505 
L 293.235853 188.83872 
L 296.482361 199.571385 
L 299.728868 220.266116 
L 302.975375 208.501587 
L 306.221883 209.148772 
L 309.46839 207.882889 
L 312.714897 195.629386 
L 315.961405 195.255605 
L 319.207912 154.265926 
L 322.454419 156.623325 
L 325.700927 136.61593 
L 328.947434 121.960575 
L 332.193941 141.55404 
L 335.440449 156.305277 
L 338.686956 155.714589 
L 341.933463 150.424876 
L 345.179971 206.964689 
L 348.426478 173.298528 
L 351.672985 180.391756 
L 354.919493 205.075233 
L 358.166 222.790999 
L 361.412507 203.859155 
L 364.659015 190.204979 
L 367.905522 148.040519 
L 374.398537 191.446867 
L 377.645044 188.345444 
L 380.891551 194.825997 
L 384.138059 185.261515 
L 387.384566 148.048932 
L 390.631073 164.22455 
L 393.877581 189.128376 
L 397.124088 188.306154 
L 400.370595 187.145713 
L 403.617103 177.243778 
L 406.86361 155.117209 
L 410.110117 162.359375 
L 413.356625 181.257856 
L 416.603132 183.02342 
L 419.84964 191.179676 
L 423.096147 186.440884 
L 426.342654 161.95118 
L 429.589162 182.415334 
L 432.835669 186.579594 
L 436.082176 188.895695 
L 439.328684 189.325017 
L 442.575191 187.135771 
L 445.821698 157.031711 
L 449.068206 169.083411 
L 452.314713 192.016046 
L 455.56122 186.249596 
L 458.807728 186.590014 
L 462.054235 180.14378 
L 465.300742 150.94425 
L 468.54725 173.982614 
L 471.793757 189.360292 
L 475.040264 193.477519 
L 478.286772 193.23958 
L 481.533279 189.342033 
L 484.779786 193.873286 
L 488.026294 191.64867 
L 491.272801 188.565793 
L 494.519308 187.653711 
L 497.765816 182.394111 
L 501.012323 182.083328 
L 504.25883 185.696955 
L 510.751845 182.612931 
L 513.998352 183.083168 
L 517.24486 182.37394 
L 520.491367 176.549177 
L 523.737874 177.303525 
L 526.984382 180.512494 
L 530.230889 193.60447 
L 533.477396 178.007877 
L 536.723904 193.236234 
L 539.970411 198.167939 
L 543.216918 193.926533 
L 546.463426 193.258986 
L 549.709933 194.256148 
L 552.95644 192.359427 
L 556.202948 193.068845 
L 559.449455 197.457565 
L 562.695962 191.826001 
L 565.94247 191.721706 
L 569.188977 185.59505 
L 572.435484 185.11793 
L 575.681992 185.035526 
L 578.928499 183.780254 
L 582.175006 193.162912 
L 585.421514 193.804362 
L 588.668021 189.128758 
L 591.914528 189.973254 
L 595.161036 186.801472 
L 598.407543 183.936362 
L 601.65405 170.401012 
L 604.900558 169.853151 
L 608.147065 171.138057 
L 611.393572 199.462119 
L 614.64008 200.06447 
L 617.886587 197.7824 
L 621.133094 195.971142 
L 624.379602 191.030451 
L 627.626109 195.237729 
L 630.872616 190.183469 
L 634.119124 186.03374 
L 637.365631 185.421065 
L 640.612138 190.046863 
L 643.858646 190.889924 
L 647.105153 193.197709 
L 650.35166 171.078597 
L 653.598168 168.467964 
L 656.844675 158.826049 
L 660.091182 161.006691 
L 663.33769 164.835218 
L 666.584197 151.719534 
L 669.830704 147.061998 
L 673.077212 157.129315 
L 676.323719 149.216733 
L 679.570226 152.359071 
L 682.816734 181.404883 
L 686.063241 175.666347 
L 689.309748 164.644982 
L 692.556256 183.922979 
L 695.802763 186.833783 
L 699.04927 186.850226 
L 702.295778 180.706076 
L 705.542285 168.17544 
L 708.788792 163.48349 
L 712.0353 179.125013 
L 715.281807 195.379115 
L 718.528314 189.122449 
L 721.774822 201.312763 
L 725.021329 189.036412 
L 728.267836 180.271114 
L 731.514344 194.857257 
L 734.760851 198.814838 
L 738.007358 205.356572 
L 741.253866 206.517969 
L 744.500373 193.311468 
L 747.74688 181.006152 
L 750.993388 200.386437 
L 754.239895 202.686383 
L 757.486402 202.58897 
L 760.73291 209.359944 
L 763.979417 191.157593 
L 767.225924 174.075438 
L 770.472432 204.954017 
L 773.718939 151.93539 
L 776.965446 154.119951 
L 780.211954 163.29507 
L 783.458461 204.776208 
L 786.704968 230.765814 
L 789.951476 209.707053 
L 793.197983 205.749281 
L 796.44449 205.099323 
L 799.690998 476.445684 
L 802.937505 476.445684 
L 806.184012 188.012387 
L 809.43052 187.547026 
L 812.677027 202.644321 
L 815.923534 212.738404 
L 819.170042 212.17238 
L 822.416549 199.78705 
L 825.663056 191.054254 
L 828.909564 193.848622 
L 832.156071 228.935149 
L 835.402578 226.015741 
L 838.649086 226.854979 
L 841.895593 221.23785 
L 845.1421 209.146765 
L 848.388608 219.91872 
L 851.635115 230.161551 
L 854.881622 229.747142 
L 858.12813 215.739643 
L 861.374637 192.521462 
L 864.621144 176.813309 
L 867.867652 203.886496 
L 871.114159 200.883441 
L 877.607174 199.860563 
L 880.853681 179.131226 
L 884.100188 170.611705 
L 887.346696 187.039793 
L 890.593203 199.815155 
L 893.83971 199.481238 
L 897.086218 199.751488 
L 900.332725 185.105885 
L 903.579232 180.382388 
L 906.82574 198.834435 
L 910.072247 203.64655 
L 916.565262 203.030911 
L 919.811769 198.980984 
L 923.058276 202.304381 
L 926.304784 206.43958 
L 929.551291 200.374679 
L 932.797798 200.614816 
L 936.044306 189.408472 
L 939.290813 190.779702 
L 942.53732 191.410063 
L 945.783828 186.117291 
L 949.030335 187.968604 
L 952.276842 188.942059 
L 955.52335 180.357533 
L 958.769857 179.746578 
L 962.016364 187.656101 
L 965.262872 185.114393 
L 968.509379 184.494452 
L 971.755886 197.243334 
L 975.002394 234.120662 
L 978.248901 194.432045 
L 981.495408 194.085701 
L 984.741916 199.160131 
L 987.988423 194.796171 
L 991.23493 166.789488 
L 994.481438 158.33784 
L 997.727945 158.072944 
L 1000.974452 163.229491 
L 1004.22096 171.733812 
L 1007.467467 262.52034 
L 1010.713974 274.430271 
L 1013.960482 248.620386 
L 1017.206989 264.83214 
L 1020.453496 270.329678 
L 1023.700004 280.263065 
L 1026.946511 149.590705 
L 1030.193018 132.691425 
L 1033.439526 119.008665 
L 1036.686033 204.746287 
L 1039.93254 208.574622 
L 1043.179048 208.75396 
L 1046.425555 208.099223 
L 1049.672062 187.826357 
L 1052.91857 200.582122 
L 1056.165077 187.779707 
L 1059.411584 187.003084 
L 1062.658092 174.248753 
L 1065.904599 193.498836 
L 1069.151106 177.809706 
L 1072.397614 157.612075 
L 1075.644121 185.087435 
L 1078.890628 180.820887 
L 1082.137136 181.439489 
L 1085.383643 180.097225 
L 1088.63015 164.778147 
L 1091.876658 150.86892 
L 1095.123165 168.803888 
L 1098.369672 184.573032 
L 1101.61618 183.927854 
L 1104.862687 182.990344 
L 1108.109194 164.26862 
L 1111.355702 154.820766 
L 1114.602209 178.859447 
L 1117.848716 179.4205 
L 1121.095224 177.458965 
L 1124.341731 174.231928 
L 1127.588238 172.77189 
L 1130.834746 172.483094 
L 1134.081253 166.719703 
L 1137.32776 169.330336 
L 1140.574268 166.043361 
L 1143.820775 164.417272 
L 1147.067282 158.953957 
L 1150.31379 158.047897 
L 1153.560297 165.09218 
L 1156.806804 165.403823 
L 1160.053312 166.622673 
L 1163.299819 171.270553 
L 1166.546326 175.216759 
L 1169.792834 173.28763 
L 1173.039341 164.149985 
L 1176.285848 164.366606 
L 1179.532356 163.77869 
L 1182.778863 164.417272 
L 1186.02537 157.75805 
L 1189.271878 158.741734 
L 1192.518385 154.80222 
L 1195.764892 166.789966 
L 1199.0114 121.113212 
L 1202.257907 131.787468 
L 1205.504414 138.837678 
L 1208.750922 179.36754 
L 1211.997429 127.083186 
L 1215.243936 95.87394 
L 1218.490444 120.894297 
L 1218.490444 120.894297 
" style="fill:none;stroke:#ff0000;stroke-linecap:square;"/>
   </g>
   <g id="patch_3">
    <path d="M 36.085 28.76 
L 1216.44 28.76 
" style="fill:none;stroke:#000000;stroke-linecap:square;stroke-linejoin:miter;"/>
   </g>
   <g id="patch_4">
    <path d="M 1216.44 511.34 
L 1216.44 28.76 
" style="fill:none;stroke:#000000;stroke-linecap:square;stroke-linejoin:miter;"/>
   </g>
   <g id="patch_5">
    <path d="M 36.085 511.34 
L 1216.44 511.34 
" style="fill:none;stroke:#000000;stroke-linecap:square;stroke-linejoin:miter;"/>
   </g>
   <g id="patch_6">
    <path d="M 36.085 511.34 
L 36.085 28.76 
" style="fill:none;stroke:#000000;stroke-linecap:square;stroke-linejoin:miter;"/>
   </g>
   <g id="matplotlib.axis_1">
    <g id="xtick_1">
     <g id="line2d_3">
      <defs>
       <path d="M 0 0 
L 0 -4 
" id="m3fb27ffe3d" style="stroke:#000000;stroke-width:0.5;"/>
      </defs>
      <g>
       <use style="stroke:#000000;stroke-width:0.5;" x="43.2547887414" xlink:href="#m3fb27ffe3d" y="511.34"/>
      </g>
     </g>
     <g id="line2d_4">
      <defs>
       <path d="M 0 0 
L 0 4 
" id="m132aefc409" style="stroke:#000000;stroke-width:0.5;"/>
      </defs>
      <g>
       <use style="stroke:#000000;stroke-width:0.5;" x="43.2547887414" xlink:href="#m132aefc409" y="28.76"/>
      </g>
     </g>
     <g id="text_1">
      <!-- 400 -->
      <defs>
       <path d="M 31.78125 66.40625 
Q 24.171875 66.40625 20.328125 58.90625 
Q 16.5 51.421875 16.5 36.375 
Q 16.5 21.390625 20.328125 13.890625 
Q 24.171875 6.390625 31.78125 6.390625 
Q 39.453125 6.390625 43.28125 13.890625 
Q 47.125 21.390625 47.125 36.375 
Q 47.125 51.421875 43.28125 58.90625 
Q 39.453125 66.40625 31.78125 66.40625 
M 31.78125 74.21875 
Q 44.046875 74.21875 50.515625 64.515625 
Q 56.984375 54.828125 56.984375 36.375 
Q 56.984375 17.96875 50.515625 8.265625 
Q 44.046875 -1.421875 31.78125 -1.421875 
Q 19.53125 -1.421875 13.0625 8.265625 
Q 6.59375 17.96875 6.59375 36.375 
Q 6.59375 54.828125 13.0625 64.515625 
Q 19.53125 74.21875 31.78125 74.21875 
" id="BitstreamVeraSans-Roman-30"/>
       <path d="M 37.796875 64.3125 
L 12.890625 25.390625 
L 37.796875 25.390625 
z
M 35.203125 72.90625 
L 47.609375 72.90625 
L 47.609375 25.390625 
L 58.015625 25.390625 
L 58.015625 17.1875 
L 47.609375 17.1875 
L 47.609375 0 
L 37.796875 0 
L 37.796875 17.1875 
L 4.890625 17.1875 
L 4.890625 26.703125 
z
" id="BitstreamVeraSans-Roman-34"/>
      </defs>
      <g transform="translate(31.8022887414 524.458125)scale(0.12 -0.12)">
       <use xlink:href="#BitstreamVeraSans-Roman-34"/>
       <use x="63.623046875" xlink:href="#BitstreamVeraSans-Roman-30"/>
       <use x="127.24609375" xlink:href="#BitstreamVeraSans-Roman-30"/>
      </g>
     </g>
    </g>
    <g id="xtick_2">
     <g id="line2d_5">
      <g>
       <use style="stroke:#000000;stroke-width:0.5;" x="205.580155448" xlink:href="#m3fb27ffe3d" y="511.34"/>
      </g>
     </g>
     <g id="line2d_6">
      <g>
       <use style="stroke:#000000;stroke-width:0.5;" x="205.580155448" xlink:href="#m132aefc409" y="28.76"/>
      </g>
     </g>
     <g id="text_2">
      <!-- 450 -->
      <defs>
       <path d="M 10.796875 72.90625 
L 49.515625 72.90625 
L 49.515625 64.59375 
L 19.828125 64.59375 
L 19.828125 46.734375 
Q 21.96875 47.46875 24.109375 47.828125 
Q 26.265625 48.1875 28.421875 48.1875 
Q 40.625 48.1875 47.75 41.5 
Q 54.890625 34.8125 54.890625 23.390625 
Q 54.890625 11.625 47.5625 5.09375 
Q 40.234375 -1.421875 26.90625 -1.421875 
Q 22.3125 -1.421875 17.546875 -0.640625 
Q 12.796875 0.140625 7.71875 1.703125 
L 7.71875 11.625 
Q 12.109375 9.234375 16.796875 8.0625 
Q 21.484375 6.890625 26.703125 6.890625 
Q 35.15625 6.890625 40.078125 11.328125 
Q 45.015625 15.765625 45.015625 23.390625 
Q 45.015625 31 40.078125 35.4375 
Q 35.15625 39.890625 26.703125 39.890625 
Q 22.75 39.890625 18.8125 39.015625 
Q 14.890625 38.140625 10.796875 36.28125 
z
" id="BitstreamVeraSans-Roman-35"/>
      </defs>
      <g transform="translate(194.127655448 524.458125)scale(0.12 -0.12)">
       <use xlink:href="#BitstreamVeraSans-Roman-34"/>
       <use x="63.623046875" xlink:href="#BitstreamVeraSans-Roman-35"/>
       <use x="127.24609375" xlink:href="#BitstreamVeraSans-Roman-30"/>
      </g>
     </g>
    </g>
    <g id="xtick_3">
     <g id="line2d_7">
      <g>
       <use style="stroke:#000000;stroke-width:0.5;" x="367.905522154" xlink:href="#m3fb27ffe3d" y="511.34"/>
      </g>
     </g>
     <g id="line2d_8">
      <g>
       <use style="stroke:#000000;stroke-width:0.5;" x="367.905522154" xlink:href="#m132aefc409" y="28.76"/>
      </g>
     </g>
     <g id="text_3">
      <!-- 500 -->
      <g transform="translate(356.453022154 524.458125)scale(0.12 -0.12)">
       <use xlink:href="#BitstreamVeraSans-Roman-35"/>
       <use x="63.623046875" xlink:href="#BitstreamVeraSans-Roman-30"/>
       <use x="127.24609375" xlink:href="#BitstreamVeraSans-Roman-30"/>
      </g>
     </g>
    </g>
    <g id="xtick_4">
     <g id="line2d_9">
      <g>
       <use style="stroke:#000000;stroke-width:0.5;" x="530.230888861" xlink:href="#m3fb27ffe3d" y="511.34"/>
      </g>
     </g>
     <g id="line2d_10">
      <g>
       <use style="stroke:#000000;stroke-width:0.5;" x="530.230888861" xlink:href="#m132aefc409" y="28.76"/>
      </g>
     </g>
     <g id="text_4">
      <!-- 550 -->
      <g transform="translate(518.778388861 524.458125)scale(0.12 -0.12)">
       <use xlink:href="#BitstreamVeraSans-Roman-35"/>
       <use x="63.623046875" xlink:href="#BitstreamVeraSans-Roman-35"/>
       <use x="127.24609375" xlink:href="#BitstreamVeraSans-Roman-30"/>
      </g>
     </g>
    </g>
    <g id="xtick_5">
     <g id="line2d_11">
      <g>
       <use style="stroke:#000000;stroke-width:0.5;" x="692.556255567" xlink:href="#m3fb27ffe3d" y="511.34"/>
      </g>
     </g>
     <g id="line2d_12">
      <g>
       <use style="stroke:#000000;stroke-width:0.5;" x="692.556255567" xlink:href="#m132aefc409" y="28.76"/>
      </g>
     </g>
     <g id="text_5">
      <!-- 600 -->
      <defs>
       <path d="M 33.015625 40.375 
Q 26.375 40.375 22.484375 35.828125 
Q 18.609375 31.296875 18.609375 23.390625 
Q 18.609375 15.53125 22.484375 10.953125 
Q 26.375 6.390625 33.015625 6.390625 
Q 39.65625 6.390625 43.53125 10.953125 
Q 47.40625 15.53125 47.40625 23.390625 
Q 47.40625 31.296875 43.53125 35.828125 
Q 39.65625 40.375 33.015625 40.375 
M 52.59375 71.296875 
L 52.59375 62.3125 
Q 48.875 64.0625 45.09375 64.984375 
Q 41.3125 65.921875 37.59375 65.921875 
Q 27.828125 65.921875 22.671875 59.328125 
Q 17.53125 52.734375 16.796875 39.40625 
Q 19.671875 43.65625 24.015625 45.921875 
Q 28.375 48.1875 33.59375 48.1875 
Q 44.578125 48.1875 50.953125 41.515625 
Q 57.328125 34.859375 57.328125 23.390625 
Q 57.328125 12.15625 50.6875 5.359375 
Q 44.046875 -1.421875 33.015625 -1.421875 
Q 20.359375 -1.421875 13.671875 8.265625 
Q 6.984375 17.96875 6.984375 36.375 
Q 6.984375 53.65625 15.1875 63.9375 
Q 23.390625 74.21875 37.203125 74.21875 
Q 40.921875 74.21875 44.703125 73.484375 
Q 48.484375 72.75 52.59375 71.296875 
" id="BitstreamVeraSans-Roman-36"/>
      </defs>
      <g transform="translate(681.103755567 524.458125)scale(0.12 -0.12)">
       <use xlink:href="#BitstreamVeraSans-Roman-36"/>
       <use x="63.623046875" xlink:href="#BitstreamVeraSans-Roman-30"/>
       <use x="127.24609375" xlink:href="#BitstreamVeraSans-Roman-30"/>
      </g>
     </g>
    </g>
    <g id="xtick_6">
     <g id="line2d_13">
      <g>
       <use style="stroke:#000000;stroke-width:0.5;" x="854.881622274" xlink:href="#m3fb27ffe3d" y="511.34"/>
      </g>
     </g>
     <g id="line2d_14">
      <g>
       <use style="stroke:#000000;stroke-width:0.5;" x="854.881622274" xlink:href="#m132aefc409" y="28.76"/>
      </g>
     </g>
     <g id="text_6">
      <!-- 650 -->
      <g transform="translate(843.429122274 524.458125)scale(0.12 -0.12)">
       <use xlink:href="#BitstreamVeraSans-Roman-36"/>
       <use x="63.623046875" xlink:href="#BitstreamVeraSans-Roman-35"/>
       <use x="127.24609375" xlink:href="#BitstreamVeraSans-Roman-30"/>
      </g>
     </g>
    </g>
    <g id="xtick_7">
     <g id="line2d_15">
      <g>
       <use style="stroke:#000000;stroke-width:0.5;" x="1017.20698898" xlink:href="#m3fb27ffe3d" y="511.34"/>
      </g>
     </g>
     <g id="line2d_16">
      <g>
       <use style="stroke:#000000;stroke-width:0.5;" x="1017.20698898" xlink:href="#m132aefc409" y="28.76"/>
      </g>
     </g>
     <g id="text_7">
      <!-- 700 -->
      <defs>
       <path d="M 8.203125 72.90625 
L 55.078125 72.90625 
L 55.078125 68.703125 
L 28.609375 0 
L 18.3125 0 
L 43.21875 64.59375 
L 8.203125 64.59375 
z
" id="BitstreamVeraSans-Roman-37"/>
      </defs>
      <g transform="translate(1005.75448898 524.458125)scale(0.12 -0.12)">
       <use xlink:href="#BitstreamVeraSans-Roman-37"/>
       <use x="63.623046875" xlink:href="#BitstreamVeraSans-Roman-30"/>
       <use x="127.24609375" xlink:href="#BitstreamVeraSans-Roman-30"/>
      </g>
     </g>
    </g>
    <g id="xtick_8">
     <g id="line2d_17">
      <g>
       <use style="stroke:#000000;stroke-width:0.5;" x="1179.53235569" xlink:href="#m3fb27ffe3d" y="511.34"/>
      </g>
     </g>
     <g id="line2d_18">
      <g>
       <use style="stroke:#000000;stroke-width:0.5;" x="1179.53235569" xlink:href="#m132aefc409" y="28.76"/>
      </g>
     </g>
     <g id="text_8">
      <!-- 750 -->
      <g transform="translate(1168.07985569 524.458125)scale(0.12 -0.12)">
       <use xlink:href="#BitstreamVeraSans-Roman-37"/>
       <use x="63.623046875" xlink:href="#BitstreamVeraSans-Roman-35"/>
       <use x="127.24609375" xlink:href="#BitstreamVeraSans-Roman-30"/>
      </g>
     </g>
    </g>
   </g>
   <g id="matplotlib.axis_2">
    <g id="ytick_1">
     <g id="line2d_19">
      <defs>
       <path d="M 0 0 
L 4 0 
" id="mbe73386028" style="stroke:#000000;stroke-width:0.5;"/>
      </defs>
      <g>
       <use style="stroke:#000000;stroke-width:0.5;" x="36.085" xlink:href="#mbe73386028" y="476.445684461"/>
      </g>
     </g>
     <g id="line2d_20">
      <defs>
       <path d="M 0 0 
L -4 0 
" id="mfdf388488c" style="stroke:#000000;stroke-width:0.5;"/>
      </defs>
      <g>
       <use style="stroke:#000000;stroke-width:0.5;" x="1216.44" xlink:href="#mfdf388488c" y="476.445684461"/>
      </g>
     </g>
     <g id="text_9">
      <!-- 0.0 -->
      <defs>
       <path d="M 10.6875 12.40625 
L 21 12.40625 
L 21 0 
L 10.6875 0 
z
" id="BitstreamVeraSans-Roman-2e"/>
      </defs>
      <g transform="translate(13.00125 479.756934461)scale(0.12 -0.12)">
       <use xlink:href="#BitstreamVeraSans-Roman-30"/>
       <use x="63.623046875" xlink:href="#BitstreamVeraSans-Roman-2e"/>
       <use x="95.41015625" xlink:href="#BitstreamVeraSans-Roman-30"/>
      </g>
     </g>
    </g>
    <g id="ytick_2">
     <g id="line2d_21">
      <g>
       <use style="stroke:#000000;stroke-width:0.5;" x="36.085" xlink:href="#mbe73386028" y="380.849622958"/>
      </g>
     </g>
     <g id="line2d_22">
      <g>
       <use style="stroke:#000000;stroke-width:0.5;" x="1216.44" xlink:href="#mfdf388488c" y="380.849622958"/>
      </g>
     </g>
     <g id="text_10">
      <!-- 0.1 -->
      <defs>
       <path d="M 12.40625 8.296875 
L 28.515625 8.296875 
L 28.515625 63.921875 
L 10.984375 60.40625 
L 10.984375 69.390625 
L 28.421875 72.90625 
L 38.28125 72.90625 
L 38.28125 8.296875 
L 54.390625 8.296875 
L 54.390625 0 
L 12.40625 0 
z
" id="BitstreamVeraSans-Roman-31"/>
      </defs>
      <g transform="translate(13.00125 384.160872958)scale(0.12 -0.12)">
       <use xlink:href="#BitstreamVeraSans-Roman-30"/>
       <use x="63.623046875" xlink:href="#BitstreamVeraSans-Roman-2e"/>
       <use x="95.41015625" xlink:href="#BitstreamVeraSans-Roman-31"/>
      </g>
     </g>
    </g>
    <g id="ytick_3">
     <g id="line2d_23">
      <g>
       <use style="stroke:#000000;stroke-width:0.5;" x="36.085" xlink:href="#mbe73386028" y="285.253561456"/>
      </g>
     </g>
     <g id="line2d_24">
      <g>
       <use style="stroke:#000000;stroke-width:0.5;" x="1216.44" xlink:href="#mfdf388488c" y="285.253561456"/>
      </g>
     </g>
     <g id="text_11">
      <!-- 0.2 -->
      <defs>
       <path d="M 19.1875 8.296875 
L 53.609375 8.296875 
L 53.609375 0 
L 7.328125 0 
L 7.328125 8.296875 
Q 12.9375 14.109375 22.625 23.890625 
Q 32.328125 33.6875 34.8125 36.53125 
Q 39.546875 41.84375 41.421875 45.53125 
Q 43.3125 49.21875 43.3125 52.78125 
Q 43.3125 58.59375 39.234375 62.25 
Q 35.15625 65.921875 28.609375 65.921875 
Q 23.96875 65.921875 18.8125 64.3125 
Q 13.671875 62.703125 7.8125 59.421875 
L 7.8125 69.390625 
Q 13.765625 71.78125 18.9375 73 
Q 24.125 74.21875 28.421875 74.21875 
Q 39.75 74.21875 46.484375 68.546875 
Q 53.21875 62.890625 53.21875 53.421875 
Q 53.21875 48.921875 51.53125 44.890625 
Q 49.859375 40.875 45.40625 35.40625 
Q 44.1875 33.984375 37.640625 27.21875 
Q 31.109375 20.453125 19.1875 8.296875 
" id="BitstreamVeraSans-Roman-32"/>
      </defs>
      <g transform="translate(13.00125 288.564811456)scale(0.12 -0.12)">
       <use xlink:href="#BitstreamVeraSans-Roman-30"/>
       <use x="63.623046875" xlink:href="#BitstreamVeraSans-Roman-2e"/>
       <use x="95.41015625" xlink:href="#BitstreamVeraSans-Roman-32"/>
      </g>
     </g>
    </g>
    <g id="ytick_4">
     <g id="line2d_25">
      <g>
       <use style="stroke:#000000;stroke-width:0.5;" x="36.085" xlink:href="#mbe73386028" y="189.657499953"/>
      </g>
     </g>
     <g id="line2d_26">
      <g>
       <use style="stroke:#000000;stroke-width:0.5;" x="1216.44" xlink:href="#mfdf388488c" y="189.657499953"/>
      </g>
     </g>
     <g id="text_12">
      <!-- 0.3 -->
      <defs>
       <path d="M 40.578125 39.3125 
Q 47.65625 37.796875 51.625 33 
Q 55.609375 28.21875 55.609375 21.1875 
Q 55.609375 10.40625 48.1875 4.484375 
Q 40.765625 -1.421875 27.09375 -1.421875 
Q 22.515625 -1.421875 17.65625 -0.515625 
Q 12.796875 0.390625 7.625 2.203125 
L 7.625 11.71875 
Q 11.71875 9.328125 16.59375 8.109375 
Q 21.484375 6.890625 26.8125 6.890625 
Q 36.078125 6.890625 40.9375 10.546875 
Q 45.796875 14.203125 45.796875 21.1875 
Q 45.796875 27.640625 41.28125 31.265625 
Q 36.765625 34.90625 28.71875 34.90625 
L 20.21875 34.90625 
L 20.21875 43.015625 
L 29.109375 43.015625 
Q 36.375 43.015625 40.234375 45.921875 
Q 44.09375 48.828125 44.09375 54.296875 
Q 44.09375 59.90625 40.109375 62.90625 
Q 36.140625 65.921875 28.71875 65.921875 
Q 24.65625 65.921875 20.015625 65.03125 
Q 15.375 64.15625 9.8125 62.3125 
L 9.8125 71.09375 
Q 15.4375 72.65625 20.34375 73.4375 
Q 25.25 74.21875 29.59375 74.21875 
Q 40.828125 74.21875 47.359375 69.109375 
Q 53.90625 64.015625 53.90625 55.328125 
Q 53.90625 49.265625 50.4375 45.09375 
Q 46.96875 40.921875 40.578125 39.3125 
" id="BitstreamVeraSans-Roman-33"/>
      </defs>
      <g transform="translate(13.00125 192.968749953)scale(0.12 -0.12)">
       <use xlink:href="#BitstreamVeraSans-Roman-30"/>
       <use x="63.623046875" xlink:href="#BitstreamVeraSans-Roman-2e"/>
       <use x="95.41015625" xlink:href="#BitstreamVeraSans-Roman-33"/>
      </g>
     </g>
    </g>
    <g id="ytick_5">
     <g id="line2d_27">
      <g>
       <use style="stroke:#000000;stroke-width:0.5;" x="36.085" xlink:href="#mbe73386028" y="94.0614384505"/>
      </g>
     </g>
     <g id="line2d_28">
      <g>
       <use style="stroke:#000000;stroke-width:0.5;" x="1216.44" xlink:href="#mfdf388488c" y="94.0614384505"/>
      </g>
     </g>
     <g id="text_13">
      <!-- 0.4 -->
      <g transform="translate(13.00125 97.3726884505)scale(0.12 -0.12)">
       <use xlink:href="#BitstreamVeraSans-Roman-30"/>
       <use x="63.623046875" xlink:href="#BitstreamVeraSans-Roman-2e"/>
       <use x="95.41015625" xlink:href="#BitstreamVeraSans-Roman-34"/>
      </g>
     </g>
    </g>
   </g>
   <g id="text_14">
    <!-- mem_usage based on GANN Prediction - score 0.000474783595014 -->
    <defs>
     <path id="BitstreamVeraSans-Roman-20"/>
     <path d="M 50.984375 -16.609375 
L 50.984375 -23.578125 
L -0.984375 -23.578125 
L -0.984375 -16.609375 
z
" id="BitstreamVeraSans-Roman-5f"/>
     <path d="M 59.515625 10.40625 
L 59.515625 29.984375 
L 43.40625 29.984375 
L 43.40625 38.09375 
L 69.28125 38.09375 
L 69.28125 6.78125 
Q 63.578125 2.734375 56.6875 0.65625 
Q 49.8125 -1.421875 42 -1.421875 
Q 24.90625 -1.421875 15.25 8.5625 
Q 5.609375 18.5625 5.609375 36.375 
Q 5.609375 54.25 15.25 64.234375 
Q 24.90625 74.21875 42 74.21875 
Q 49.125 74.21875 55.546875 72.453125 
Q 61.96875 70.703125 67.390625 67.28125 
L 67.390625 56.78125 
Q 61.921875 61.421875 55.765625 63.765625 
Q 49.609375 66.109375 42.828125 66.109375 
Q 29.4375 66.109375 22.71875 58.640625 
Q 16.015625 51.171875 16.015625 36.375 
Q 16.015625 21.625 22.71875 14.15625 
Q 29.4375 6.6875 42.828125 6.6875 
Q 48.046875 6.6875 52.140625 7.59375 
Q 56.25 8.5 59.515625 10.40625 
" id="BitstreamVeraSans-Roman-47"/>
     <path d="M 9.421875 54.6875 
L 18.40625 54.6875 
L 18.40625 0 
L 9.421875 0 
z
M 9.421875 75.984375 
L 18.40625 75.984375 
L 18.40625 64.59375 
L 9.421875 64.59375 
z
" id="BitstreamVeraSans-Roman-69"/>
     <path d="M 34.1875 63.1875 
L 20.796875 26.90625 
L 47.609375 26.90625 
z
M 28.609375 72.90625 
L 39.796875 72.90625 
L 67.578125 0 
L 57.328125 0 
L 50.6875 18.703125 
L 17.828125 18.703125 
L 11.1875 0 
L 0.78125 0 
z
" id="BitstreamVeraSans-Roman-41"/>
     <path d="M 56.203125 29.59375 
L 56.203125 25.203125 
L 14.890625 25.203125 
Q 15.484375 15.921875 20.484375 11.0625 
Q 25.484375 6.203125 34.421875 6.203125 
Q 39.59375 6.203125 44.453125 7.46875 
Q 49.3125 8.734375 54.109375 11.28125 
L 54.109375 2.78125 
Q 49.265625 0.734375 44.1875 -0.34375 
Q 39.109375 -1.421875 33.890625 -1.421875 
Q 20.796875 -1.421875 13.15625 6.1875 
Q 5.515625 13.8125 5.515625 26.8125 
Q 5.515625 40.234375 12.765625 48.109375 
Q 20.015625 56 32.328125 56 
Q 43.359375 56 49.78125 48.890625 
Q 56.203125 41.796875 56.203125 29.59375 
M 47.21875 32.234375 
Q 47.125 39.59375 43.09375 43.984375 
Q 39.0625 48.390625 32.421875 48.390625 
Q 24.90625 48.390625 20.390625 44.140625 
Q 15.875 39.890625 15.1875 32.171875 
z
" id="BitstreamVeraSans-Roman-65"/>
     <path d="M 45.40625 46.390625 
L 45.40625 75.984375 
L 54.390625 75.984375 
L 54.390625 0 
L 45.40625 0 
L 45.40625 8.203125 
Q 42.578125 3.328125 38.25 0.953125 
Q 33.9375 -1.421875 27.875 -1.421875 
Q 17.96875 -1.421875 11.734375 6.484375 
Q 5.515625 14.40625 5.515625 27.296875 
Q 5.515625 40.1875 11.734375 48.09375 
Q 17.96875 56 27.875 56 
Q 33.9375 56 38.25 53.625 
Q 42.578125 51.265625 45.40625 46.390625 
M 14.796875 27.296875 
Q 14.796875 17.390625 18.875 11.75 
Q 22.953125 6.109375 30.078125 6.109375 
Q 37.203125 6.109375 41.296875 11.75 
Q 45.40625 17.390625 45.40625 27.296875 
Q 45.40625 37.203125 41.296875 42.84375 
Q 37.203125 48.484375 30.078125 48.484375 
Q 22.953125 48.484375 18.875 42.84375 
Q 14.796875 37.203125 14.796875 27.296875 
" id="BitstreamVeraSans-Roman-64"/>
     <path d="M 45.40625 27.984375 
Q 45.40625 37.75 41.375 43.109375 
Q 37.359375 48.484375 30.078125 48.484375 
Q 22.859375 48.484375 18.828125 43.109375 
Q 14.796875 37.75 14.796875 27.984375 
Q 14.796875 18.265625 18.828125 12.890625 
Q 22.859375 7.515625 30.078125 7.515625 
Q 37.359375 7.515625 41.375 12.890625 
Q 45.40625 18.265625 45.40625 27.984375 
M 54.390625 6.78125 
Q 54.390625 -7.171875 48.1875 -13.984375 
Q 42 -20.796875 29.203125 -20.796875 
Q 24.46875 -20.796875 20.265625 -20.09375 
Q 16.0625 -19.390625 12.109375 -17.921875 
L 12.109375 -9.1875 
Q 16.0625 -11.328125 19.921875 -12.34375 
Q 23.78125 -13.375 27.78125 -13.375 
Q 36.625 -13.375 41.015625 -8.765625 
Q 45.40625 -4.15625 45.40625 5.171875 
L 45.40625 9.625 
Q 42.625 4.78125 38.28125 2.390625 
Q 33.9375 0 27.875 0 
Q 17.828125 0 11.671875 7.65625 
Q 5.515625 15.328125 5.515625 27.984375 
Q 5.515625 40.671875 11.671875 48.328125 
Q 17.828125 56 27.875 56 
Q 33.9375 56 38.28125 53.609375 
Q 42.625 51.21875 45.40625 46.390625 
L 45.40625 54.6875 
L 54.390625 54.6875 
z
" id="BitstreamVeraSans-Roman-67"/>
     <path d="M 34.28125 27.484375 
Q 23.390625 27.484375 19.1875 25 
Q 14.984375 22.515625 14.984375 16.5 
Q 14.984375 11.71875 18.140625 8.90625 
Q 21.296875 6.109375 26.703125 6.109375 
Q 34.1875 6.109375 38.703125 11.40625 
Q 43.21875 16.703125 43.21875 25.484375 
L 43.21875 27.484375 
z
M 52.203125 31.203125 
L 52.203125 0 
L 43.21875 0 
L 43.21875 8.296875 
Q 40.140625 3.328125 35.546875 0.953125 
Q 30.953125 -1.421875 24.3125 -1.421875 
Q 15.921875 -1.421875 10.953125 3.296875 
Q 6 8.015625 6 15.921875 
Q 6 25.140625 12.171875 29.828125 
Q 18.359375 34.515625 30.609375 34.515625 
L 43.21875 34.515625 
L 43.21875 35.40625 
Q 43.21875 41.609375 39.140625 45 
Q 35.0625 48.390625 27.6875 48.390625 
Q 23 48.390625 18.546875 47.265625 
Q 14.109375 46.140625 10.015625 43.890625 
L 10.015625 52.203125 
Q 14.9375 54.109375 19.578125 55.046875 
Q 24.21875 56 28.609375 56 
Q 40.484375 56 46.34375 49.84375 
Q 52.203125 43.703125 52.203125 31.203125 
" id="BitstreamVeraSans-Roman-61"/>
     <path d="M 48.78125 52.59375 
L 48.78125 44.1875 
Q 44.96875 46.296875 41.140625 47.34375 
Q 37.3125 48.390625 33.40625 48.390625 
Q 24.65625 48.390625 19.8125 42.84375 
Q 14.984375 37.3125 14.984375 27.296875 
Q 14.984375 17.28125 19.8125 11.734375 
Q 24.65625 6.203125 33.40625 6.203125 
Q 37.3125 6.203125 41.140625 7.25 
Q 44.96875 8.296875 48.78125 10.40625 
L 48.78125 2.09375 
Q 45.015625 0.34375 40.984375 -0.53125 
Q 36.96875 -1.421875 32.421875 -1.421875 
Q 20.0625 -1.421875 12.78125 6.34375 
Q 5.515625 14.109375 5.515625 27.296875 
Q 5.515625 40.671875 12.859375 48.328125 
Q 20.21875 56 33.015625 56 
Q 37.15625 56 41.109375 55.140625 
Q 45.0625 54.296875 48.78125 52.59375 
" id="BitstreamVeraSans-Roman-63"/>
     <path d="M 48.6875 27.296875 
Q 48.6875 37.203125 44.609375 42.84375 
Q 40.53125 48.484375 33.40625 48.484375 
Q 26.265625 48.484375 22.1875 42.84375 
Q 18.109375 37.203125 18.109375 27.296875 
Q 18.109375 17.390625 22.1875 11.75 
Q 26.265625 6.109375 33.40625 6.109375 
Q 40.53125 6.109375 44.609375 11.75 
Q 48.6875 17.390625 48.6875 27.296875 
M 18.109375 46.390625 
Q 20.953125 51.265625 25.265625 53.625 
Q 29.59375 56 35.59375 56 
Q 45.5625 56 51.78125 48.09375 
Q 58.015625 40.1875 58.015625 27.296875 
Q 58.015625 14.40625 51.78125 6.484375 
Q 45.5625 -1.421875 35.59375 -1.421875 
Q 29.59375 -1.421875 25.265625 0.953125 
Q 20.953125 3.328125 18.109375 8.203125 
L 18.109375 0 
L 9.078125 0 
L 9.078125 75.984375 
L 18.109375 75.984375 
z
" id="BitstreamVeraSans-Roman-62"/>
     <path d="M 9.8125 72.90625 
L 23.09375 72.90625 
L 55.421875 11.921875 
L 55.421875 72.90625 
L 64.984375 72.90625 
L 64.984375 0 
L 51.703125 0 
L 19.390625 60.984375 
L 19.390625 0 
L 9.8125 0 
z
" id="BitstreamVeraSans-Roman-4e"/>
     <path d="M 10.984375 1.515625 
L 10.984375 10.5 
Q 14.703125 8.734375 18.5 7.8125 
Q 22.3125 6.890625 25.984375 6.890625 
Q 35.75 6.890625 40.890625 13.453125 
Q 46.046875 20.015625 46.78125 33.40625 
Q 43.953125 29.203125 39.59375 26.953125 
Q 35.25 24.703125 29.984375 24.703125 
Q 19.046875 24.703125 12.671875 31.3125 
Q 6.296875 37.9375 6.296875 49.421875 
Q 6.296875 60.640625 12.9375 67.421875 
Q 19.578125 74.21875 30.609375 74.21875 
Q 43.265625 74.21875 49.921875 64.515625 
Q 56.59375 54.828125 56.59375 36.375 
Q 56.59375 19.140625 48.40625 8.859375 
Q 40.234375 -1.421875 26.421875 -1.421875 
Q 22.703125 -1.421875 18.890625 -0.6875 
Q 15.09375 0.046875 10.984375 1.515625 
M 30.609375 32.421875 
Q 37.25 32.421875 41.125 36.953125 
Q 45.015625 41.5 45.015625 49.421875 
Q 45.015625 57.28125 41.125 61.84375 
Q 37.25 66.40625 30.609375 66.40625 
Q 23.96875 66.40625 20.09375 61.84375 
Q 16.21875 57.28125 16.21875 49.421875 
Q 16.21875 41.5 20.09375 36.953125 
Q 23.96875 32.421875 30.609375 32.421875 
" id="BitstreamVeraSans-Roman-39"/>
     <path d="M 54.890625 33.015625 
L 54.890625 0 
L 45.90625 0 
L 45.90625 32.71875 
Q 45.90625 40.484375 42.875 44.328125 
Q 39.84375 48.1875 33.796875 48.1875 
Q 26.515625 48.1875 22.3125 43.546875 
Q 18.109375 38.921875 18.109375 30.90625 
L 18.109375 0 
L 9.078125 0 
L 9.078125 54.6875 
L 18.109375 54.6875 
L 18.109375 46.1875 
Q 21.34375 51.125 25.703125 53.5625 
Q 30.078125 56 35.796875 56 
Q 45.21875 56 50.046875 50.171875 
Q 54.890625 44.34375 54.890625 33.015625 
" id="BitstreamVeraSans-Roman-6e"/>
     <path d="M 52 44.1875 
Q 55.375 50.25 60.0625 53.125 
Q 64.75 56 71.09375 56 
Q 79.640625 56 84.28125 50.015625 
Q 88.921875 44.046875 88.921875 33.015625 
L 88.921875 0 
L 79.890625 0 
L 79.890625 32.71875 
Q 79.890625 40.578125 77.09375 44.375 
Q 74.3125 48.1875 68.609375 48.1875 
Q 61.625 48.1875 57.5625 43.546875 
Q 53.515625 38.921875 53.515625 30.90625 
L 53.515625 0 
L 44.484375 0 
L 44.484375 32.71875 
Q 44.484375 40.625 41.703125 44.40625 
Q 38.921875 48.1875 33.109375 48.1875 
Q 26.21875 48.1875 22.15625 43.53125 
Q 18.109375 38.875 18.109375 30.90625 
L 18.109375 0 
L 9.078125 0 
L 9.078125 54.6875 
L 18.109375 54.6875 
L 18.109375 46.1875 
Q 21.1875 51.21875 25.484375 53.609375 
Q 29.78125 56 35.6875 56 
Q 41.65625 56 45.828125 52.96875 
Q 50 49.953125 52 44.1875 
" id="BitstreamVeraSans-Roman-6d"/>
     <path d="M 31.78125 34.625 
Q 24.75 34.625 20.71875 30.859375 
Q 16.703125 27.09375 16.703125 20.515625 
Q 16.703125 13.921875 20.71875 10.15625 
Q 24.75 6.390625 31.78125 6.390625 
Q 38.8125 6.390625 42.859375 10.171875 
Q 46.921875 13.96875 46.921875 20.515625 
Q 46.921875 27.09375 42.890625 30.859375 
Q 38.875 34.625 31.78125 34.625 
M 21.921875 38.8125 
Q 15.578125 40.375 12.03125 44.71875 
Q 8.5 49.078125 8.5 55.328125 
Q 8.5 64.0625 14.71875 69.140625 
Q 20.953125 74.21875 31.78125 74.21875 
Q 42.671875 74.21875 48.875 69.140625 
Q 55.078125 64.0625 55.078125 55.328125 
Q 55.078125 49.078125 51.53125 44.71875 
Q 48 40.375 41.703125 38.8125 
Q 48.828125 37.15625 52.796875 32.3125 
Q 56.78125 27.484375 56.78125 20.515625 
Q 56.78125 9.90625 50.3125 4.234375 
Q 43.84375 -1.421875 31.78125 -1.421875 
Q 19.734375 -1.421875 13.25 4.234375 
Q 6.78125 9.90625 6.78125 20.515625 
Q 6.78125 27.484375 10.78125 32.3125 
Q 14.796875 37.15625 21.921875 38.8125 
M 18.3125 54.390625 
Q 18.3125 48.734375 21.84375 45.5625 
Q 25.390625 42.390625 31.78125 42.390625 
Q 38.140625 42.390625 41.71875 45.5625 
Q 45.3125 48.734375 45.3125 54.390625 
Q 45.3125 60.0625 41.71875 63.234375 
Q 38.140625 66.40625 31.78125 66.40625 
Q 25.390625 66.40625 21.84375 63.234375 
Q 18.3125 60.0625 18.3125 54.390625 
" id="BitstreamVeraSans-Roman-38"/>
     <path d="M 30.609375 48.390625 
Q 23.390625 48.390625 19.1875 42.75 
Q 14.984375 37.109375 14.984375 27.296875 
Q 14.984375 17.484375 19.15625 11.84375 
Q 23.34375 6.203125 30.609375 6.203125 
Q 37.796875 6.203125 41.984375 11.859375 
Q 46.1875 17.53125 46.1875 27.296875 
Q 46.1875 37.015625 41.984375 42.703125 
Q 37.796875 48.390625 30.609375 48.390625 
M 30.609375 56 
Q 42.328125 56 49.015625 48.375 
Q 55.71875 40.765625 55.71875 27.296875 
Q 55.71875 13.875 49.015625 6.21875 
Q 42.328125 -1.421875 30.609375 -1.421875 
Q 18.84375 -1.421875 12.171875 6.21875 
Q 5.515625 13.875 5.515625 27.296875 
Q 5.515625 40.765625 12.171875 48.375 
Q 18.84375 56 30.609375 56 
" id="BitstreamVeraSans-Roman-6f"/>
     <path d="M 19.671875 64.796875 
L 19.671875 37.40625 
L 32.078125 37.40625 
Q 38.96875 37.40625 42.71875 40.96875 
Q 46.484375 44.53125 46.484375 51.125 
Q 46.484375 57.671875 42.71875 61.234375 
Q 38.96875 64.796875 32.078125 64.796875 
z
M 9.8125 72.90625 
L 32.078125 72.90625 
Q 44.34375 72.90625 50.609375 67.359375 
Q 56.890625 61.8125 56.890625 51.125 
Q 56.890625 40.328125 50.609375 34.8125 
Q 44.34375 29.296875 32.078125 29.296875 
L 19.671875 29.296875 
L 19.671875 0 
L 9.8125 0 
z
" id="BitstreamVeraSans-Roman-50"/>
     <path d="M 4.890625 31.390625 
L 31.203125 31.390625 
L 31.203125 23.390625 
L 4.890625 23.390625 
z
" id="BitstreamVeraSans-Roman-2d"/>
     <path d="M 18.3125 70.21875 
L 18.3125 54.6875 
L 36.8125 54.6875 
L 36.8125 47.703125 
L 18.3125 47.703125 
L 18.3125 18.015625 
Q 18.3125 11.328125 20.140625 9.421875 
Q 21.96875 7.515625 27.59375 7.515625 
L 36.8125 7.515625 
L 36.8125 0 
L 27.59375 0 
Q 17.1875 0 13.234375 3.875 
Q 9.28125 7.765625 9.28125 18.015625 
L 9.28125 47.703125 
L 2.6875 47.703125 
L 2.6875 54.6875 
L 9.28125 54.6875 
L 9.28125 70.21875 
z
" id="BitstreamVeraSans-Roman-74"/>
     <path d="M 8.5 21.578125 
L 8.5 54.6875 
L 17.484375 54.6875 
L 17.484375 21.921875 
Q 17.484375 14.15625 20.5 10.265625 
Q 23.53125 6.390625 29.59375 6.390625 
Q 36.859375 6.390625 41.078125 11.03125 
Q 45.3125 15.671875 45.3125 23.6875 
L 45.3125 54.6875 
L 54.296875 54.6875 
L 54.296875 0 
L 45.3125 0 
L 45.3125 8.40625 
Q 42.046875 3.421875 37.71875 1 
Q 33.40625 -1.421875 27.6875 -1.421875 
Q 18.265625 -1.421875 13.375 4.4375 
Q 8.5 10.296875 8.5 21.578125 
" id="BitstreamVeraSans-Roman-75"/>
     <path d="M 41.109375 46.296875 
Q 39.59375 47.171875 37.8125 47.578125 
Q 36.03125 48 33.890625 48 
Q 26.265625 48 22.1875 43.046875 
Q 18.109375 38.09375 18.109375 28.8125 
L 18.109375 0 
L 9.078125 0 
L 9.078125 54.6875 
L 18.109375 54.6875 
L 18.109375 46.1875 
Q 20.953125 51.171875 25.484375 53.578125 
Q 30.03125 56 36.53125 56 
Q 37.453125 56 38.578125 55.875 
Q 39.703125 55.765625 41.0625 55.515625 
z
" id="BitstreamVeraSans-Roman-72"/>
     <path d="M 44.28125 53.078125 
L 44.28125 44.578125 
Q 40.484375 46.53125 36.375 47.5 
Q 32.28125 48.484375 27.875 48.484375 
Q 21.1875 48.484375 17.84375 46.4375 
Q 14.5 44.390625 14.5 40.28125 
Q 14.5 37.15625 16.890625 35.375 
Q 19.28125 33.59375 26.515625 31.984375 
L 29.59375 31.296875 
Q 39.15625 29.25 43.1875 25.515625 
Q 47.21875 21.78125 47.21875 15.09375 
Q 47.21875 7.46875 41.1875 3.015625 
Q 35.15625 -1.421875 24.609375 -1.421875 
Q 20.21875 -1.421875 15.453125 -0.5625 
Q 10.6875 0.296875 5.421875 2 
L 5.421875 11.28125 
Q 10.40625 8.6875 15.234375 7.390625 
Q 20.0625 6.109375 24.8125 6.109375 
Q 31.15625 6.109375 34.5625 8.28125 
Q 37.984375 10.453125 37.984375 14.40625 
Q 37.984375 18.0625 35.515625 20.015625 
Q 33.0625 21.96875 24.703125 23.78125 
L 21.578125 24.515625 
Q 13.234375 26.265625 9.515625 29.90625 
Q 5.8125 33.546875 5.8125 39.890625 
Q 5.8125 47.609375 11.28125 51.796875 
Q 16.75 56 26.8125 56 
Q 31.78125 56 36.171875 55.265625 
Q 40.578125 54.546875 44.28125 53.078125 
" id="BitstreamVeraSans-Roman-73"/>
    </defs>
    <g transform="translate(380.745875 23.76)scale(0.144 -0.144)">
     <use xlink:href="#BitstreamVeraSans-Roman-6d"/>
     <use x="97.412109375" xlink:href="#BitstreamVeraSans-Roman-65"/>
     <use x="158.935546875" xlink:href="#BitstreamVeraSans-Roman-6d"/>
     <use x="256.34765625" xlink:href="#BitstreamVeraSans-Roman-5f"/>
     <use x="306.34765625" xlink:href="#BitstreamVeraSans-Roman-75"/>
     <use x="369.7265625" xlink:href="#BitstreamVeraSans-Roman-73"/>
     <use x="421.826171875" xlink:href="#BitstreamVeraSans-Roman-61"/>
     <use x="483.10546875" xlink:href="#BitstreamVeraSans-Roman-67"/>
     <use x="546.58203125" xlink:href="#BitstreamVeraSans-Roman-65"/>
     <use x="608.10546875" xlink:href="#BitstreamVeraSans-Roman-20"/>
     <use x="639.892578125" xlink:href="#BitstreamVeraSans-Roman-62"/>
     <use x="703.369140625" xlink:href="#BitstreamVeraSans-Roman-61"/>
     <use x="764.6484375" xlink:href="#BitstreamVeraSans-Roman-73"/>
     <use x="816.748046875" xlink:href="#BitstreamVeraSans-Roman-65"/>
     <use x="878.271484375" xlink:href="#BitstreamVeraSans-Roman-64"/>
     <use x="941.748046875" xlink:href="#BitstreamVeraSans-Roman-20"/>
     <use x="973.53515625" xlink:href="#BitstreamVeraSans-Roman-6f"/>
     <use x="1034.71679688" xlink:href="#BitstreamVeraSans-Roman-6e"/>
     <use x="1098.09570312" xlink:href="#BitstreamVeraSans-Roman-20"/>
     <use x="1129.8828125" xlink:href="#BitstreamVeraSans-Roman-47"/>
     <use x="1207.37304688" xlink:href="#BitstreamVeraSans-Roman-41"/>
     <use x="1275.78125" xlink:href="#BitstreamVeraSans-Roman-4e"/>
     <use x="1350.5859375" xlink:href="#BitstreamVeraSans-Roman-4e"/>
     <use x="1425.390625" xlink:href="#BitstreamVeraSans-Roman-20"/>
     <use x="1457.17773438" xlink:href="#BitstreamVeraSans-Roman-50"/>
     <use x="1517.46484375" xlink:href="#BitstreamVeraSans-Roman-72"/>
     <use x="1558.546875" xlink:href="#BitstreamVeraSans-Roman-65"/>
     <use x="1620.0703125" xlink:href="#BitstreamVeraSans-Roman-64"/>
     <use x="1683.546875" xlink:href="#BitstreamVeraSans-Roman-69"/>
     <use x="1711.33007812" xlink:href="#BitstreamVeraSans-Roman-63"/>
     <use x="1766.31054688" xlink:href="#BitstreamVeraSans-Roman-74"/>
     <use x="1805.51953125" xlink:href="#BitstreamVeraSans-Roman-69"/>
     <use x="1833.30273438" xlink:href="#BitstreamVeraSans-Roman-6f"/>
     <use x="1894.484375" xlink:href="#BitstreamVeraSans-Roman-6e"/>
     <use x="1957.86328125" xlink:href="#BitstreamVeraSans-Roman-20"/>
     <use x="1989.65039062" xlink:href="#BitstreamVeraSans-Roman-2d"/>
     <use x="2025.734375" xlink:href="#BitstreamVeraSans-Roman-20"/>
     <use x="2057.52148438" xlink:href="#BitstreamVeraSans-Roman-73"/>
     <use x="2109.62109375" xlink:href="#BitstreamVeraSans-Roman-63"/>
     <use x="2164.6015625" xlink:href="#BitstreamVeraSans-Roman-6f"/>
     <use x="2225.78320312" xlink:href="#BitstreamVeraSans-Roman-72"/>
     <use x="2266.86523438" xlink:href="#BitstreamVeraSans-Roman-65"/>
     <use x="2328.38867188" xlink:href="#BitstreamVeraSans-Roman-20"/>
     <use x="2360.17578125" xlink:href="#BitstreamVeraSans-Roman-30"/>
     <use x="2423.79882812" xlink:href="#BitstreamVeraSans-Roman-2e"/>
     <use x="2455.5859375" xlink:href="#BitstreamVeraSans-Roman-30"/>
     <use x="2519.20898438" xlink:href="#BitstreamVeraSans-Roman-30"/>
     <use x="2582.83203125" xlink:href="#BitstreamVeraSans-Roman-30"/>
     <use x="2646.45507812" xlink:href="#BitstreamVeraSans-Roman-34"/>
     <use x="2710.078125" xlink:href="#BitstreamVeraSans-Roman-37"/>
     <use x="2773.70117188" xlink:href="#BitstreamVeraSans-Roman-34"/>
     <use x="2837.32421875" xlink:href="#BitstreamVeraSans-Roman-37"/>
     <use x="2900.94726562" xlink:href="#BitstreamVeraSans-Roman-38"/>
     <use x="2964.5703125" xlink:href="#BitstreamVeraSans-Roman-33"/>
     <use x="3028.19335938" xlink:href="#BitstreamVeraSans-Roman-35"/>
     <use x="3091.81640625" xlink:href="#BitstreamVeraSans-Roman-39"/>
     <use x="3155.43945312" xlink:href="#BitstreamVeraSans-Roman-35"/>
     <use x="3219.0625" xlink:href="#BitstreamVeraSans-Roman-30"/>
     <use x="3282.68554688" xlink:href="#BitstreamVeraSans-Roman-31"/>
     <use x="3346.30859375" xlink:href="#BitstreamVeraSans-Roman-34"/>
    </g>
   </g>
   <g id="legend_1">
    <g id="patch_7">
     <path d="M 1107.2385 82.553 
L 1209.24 82.553 
L 1209.24 35.96 
L 1107.2385 35.96 
z
" style="fill:#ffffff;stroke:#000000;stroke-linejoin:miter;"/>
    </g>
    <g id="line2d_29">
     <path d="M 1117.3185 47.62175 
L 1137.4785 47.62175 
" style="fill:none;stroke:#0000ff;stroke-dasharray:6.000000,6.000000;stroke-dashoffset:0.0;"/>
    </g>
    <g id="line2d_30"/>
    <g id="text_15">
     <!-- Predict -->
     <g transform="translate(1153.3185 52.66175)scale(0.144 -0.144)">
      <use xlink:href="#BitstreamVeraSans-Roman-50"/>
      <use x="60.287109375" xlink:href="#BitstreamVeraSans-Roman-72"/>
      <use x="101.369140625" xlink:href="#BitstreamVeraSans-Roman-65"/>
      <use x="162.892578125" xlink:href="#BitstreamVeraSans-Roman-64"/>
      <use x="226.369140625" xlink:href="#BitstreamVeraSans-Roman-69"/>
      <use x="254.15234375" xlink:href="#BitstreamVeraSans-Roman-63"/>
      <use x="309.1328125" xlink:href="#BitstreamVeraSans-Roman-74"/>
     </g>
    </g>
    <g id="line2d_31">
     <path d="M 1117.3185 68.75825 
L 1137.4785 68.75825 
" style="fill:none;stroke:#ff0000;stroke-linecap:square;"/>
    </g>
    <g id="line2d_32"/>
    <g id="text_16">
     <!-- Actual -->
     <defs>
      <path d="M 9.421875 75.984375 
L 18.40625 75.984375 
L 18.40625 0 
L 9.421875 0 
z
" id="BitstreamVeraSans-Roman-6c"/>
     </defs>
     <g transform="translate(1153.3185 73.79825)scale(0.144 -0.144)">
      <use xlink:href="#BitstreamVeraSans-Roman-41"/>
      <use x="68.392578125" xlink:href="#BitstreamVeraSans-Roman-63"/>
      <use x="123.373046875" xlink:href="#BitstreamVeraSans-Roman-74"/>
      <use x="162.58203125" xlink:href="#BitstreamVeraSans-Roman-75"/>
      <use x="225.9609375" xlink:href="#BitstreamVeraSans-Roman-61"/>
      <use x="287.240234375" xlink:href="#BitstreamVeraSans-Roman-6c"/>
     </g>
    </g>
   </g>
  </g>
 </g>
 <defs>
  <clipPath id="p2d95a95f45">
   <rect height="482.58" width="1180.355" x="36.085" y="28.76"/>
  </clipPath>
 </defs>
</svg>
